HIERARCHY
ROOT Hips
{
	OFFSET 0.000000 0.000000 0.000000
	CHANNELS 6 Xposition Yposition Zposition Zrotation Yrotation Xrotation 
	JOINT LeftUpLeg_virtual
	{
		OFFSET 0.000000 0.000000 0.000000
		CHANNELS 3 Zrotation Yrotation Xrotation
		JOINT LeftUpLeg
		{
			OFFSET 8.479694 -4.795517 -0.379053
			CHANNELS 3 Zrotation Yrotation Xrotation
			JOINT LeftLeg
			{
				OFFSET 0.485052 -32.551468 0.112863
				CHANNELS 3 Zrotation Yrotation Xrotation
				JOINT LeftFoot
				{
					OFFSET 0.438033 -32.635670 -3.012641
					CHANNELS 3 Zrotation Yrotation Xrotation
					JOINT LeftToeBase
					{
						OFFSET 0.970169 -13.225353 11.864223
						CHANNELS 3 Zrotation Yrotation Xrotation
						End Site
						{
							OFFSET 0.000000 0.000000 0.000000
						}
					}
				}
			}
		}
	}
	JOINT RightUpLeg_virtual
	{
		OFFSET 0.000000 0.000000 0.000000
		CHANNELS 3 Zrotation Yrotation Xrotation
		JOINT RightUpLeg
		{
			OFFSET -8.479694 -4.795517 -0.379053
			CHANNELS 3 Zrotation Yrotation Xrotation
			JOINT RightLeg
			{
				OFFSET -0.484100 -32.551483 0.112903
				CHANNELS 3 Zrotation Yrotation Xrotation
				JOINT RightFoot
				{
					OFFSET -0.438985 -32.635651 -3.012681
					CHANNELS 3 Zrotation Yrotation Xrotation
					JOINT RightToeBase
					{
						OFFSET -0.970169 -13.225354 11.864223
						CHANNELS 3 Zrotation Yrotation Xrotation
						End Site
						{
							OFFSET 0.000000 0.000000 0.000000
						}
					}
				}
			}
		}
	}
	JOINT Spine_virtual
	{
		OFFSET 0.000000 0.000000 0.000000
		CHANNELS 3 Zrotation Yrotation Xrotation
		JOINT Spine
		{
			OFFSET 0.000000 7.722015 1.166203
			CHANNELS 3 Zrotation Yrotation Xrotation
			JOINT Spine1
			{
				OFFSET 0.000000 12.024086 0.248766
				CHANNELS 3 Zrotation Yrotation Xrotation
				JOINT Spine2
				{
					OFFSET -0.000000 11.503036 -0.491240
					CHANNELS 3 Zrotation Yrotation Xrotation
					JOINT Neck_virtual
					{
						OFFSET 0.000000 0.000000 0.000000
						CHANNELS 3 Zrotation Yrotation Xrotation
						JOINT Neck
						{
							OFFSET 0.000000 18.430687 -3.123054
							CHANNELS 3 Zrotation Yrotation Xrotation
							JOINT Head
							{
								OFFSET -0.000000 9.051071 1.034021
								CHANNELS 3 Zrotation Yrotation Xrotation
								End Site
								{
									OFFSET 0.000000 0.000000 0.000000
								}
							}
						}
					}
					JOINT LeftShoulder_virtual
					{
						OFFSET 0.000000 0.000000 0.000000
						CHANNELS 3 Zrotation Yrotation Xrotation
						JOINT LeftShoulder
						{
							OFFSET 6.197824 13.665230 -4.064723
							CHANNELS 3 Zrotation Yrotation Xrotation
							JOINT LeftArm
							{
								OFFSET 7.778132 -0.187073 -1.709282
								CHANNELS 3 Zrotation Yrotation Xrotation
								JOINT LeftForeArm
								{
									OFFSET 21.954697 0.000000 -2.041093
									CHANNELS 3 Zrotation Yrotation Xrotation
									JOINT LeftHand
									{
										OFFSET 22.992908 0.000000 -0.870901
										CHANNELS 3 Zrotation Yrotation Xrotation
										End Site
										{
											OFFSET 0.000000 0.000000 0.000000
										}
									}
								}
							}
						}
					}
					JOINT RightShoulder_virtual
					{
						OFFSET 0.000000 0.000000 0.000000
						CHANNELS 3 Zrotation Yrotation Xrotation
						JOINT RightShoulder
						{
							OFFSET -6.197824 13.665230 -4.064723
							CHANNELS 3 Zrotation Yrotation Xrotation
							JOINT RightArm
							{
								OFFSET -7.778132 -0.187073 -1.709282
								CHANNELS 3 Zrotation Yrotation Xrotation
								JOINT RightForeArm
								{
									OFFSET -21.954697 0.000000 -2.041093
									CHANNELS 3 Zrotation Yrotation Xrotation
									JOINT RightHand
									{
										OFFSET -22.992908 0.000000 -0.870901
										CHANNELS 3 Zrotation Yrotation Xrotation
										End Site
										{
											OFFSET 0.000000 0.000000 0.000000
										}
									}
								}
							}
						}
					}
				}
			}
		}
	}
}
MOTION
Frames: 5
Frame Time: 0.033333
-52.046307 80.535309 43.484299 -179.878892 -18.168088 179.970034 -6.232973 -3.882985 11.196814 -6.674038 5.719232 -23.781918 7.617719 3.485842 31.354578 5.682841 -10.627388 -16.661591 0.000000 0.000000 0.000000 -2.568373 -5.301752 10.447173 -11.190882 -11.337500 -17.487666 -2.435081 3.331925 28.967847 12.567689 5.425062 -0.032929 0.000000 0.000000 0.000000 -1.835125 -2.181209 -0.348765 0.623340 5.235066 -2.845951 -0.211568 -1.570632 6.942169 0.008131 -0.108503 -0.051984 -0.368634 -0.583050 6.356192 -12.120126 8.046420 -6.413061 0.000000 0.000000 0.000000 1.730911 -0.039635 3.645651 9.547972 3.914684 -0.504417 12.233906 -25.474949 -58.032907 -3.608102 -32.737756 7.423289 0.000000 0.000000 0.000000 -2.761006 1.576486 2.533253 22.208705 1.358754 2.462989 59.465382 -11.459956 1.473573 -176.819978 67.647969 -179.604428 0.000000 0.000000 0.000000 
-52.129646 80.535675 43.322212 -179.949188 -18.930023 179.984692 -6.335031 -4.073694 11.318107 -6.632170 5.645581 -23.781996 7.600858 3.360217 31.460801 5.751794 -10.830896 -16.657904 0.000000 0.000000 0.000000 -2.554652 -5.443644 10.502106 -11.273235 -11.754752 -17.212171 -2.488312 3.218662 29.138202 12.456483 5.502090 -0.031246 0.000000 0.000000 0.000000 -2.030300 -2.201797 -0.348506 0.828127 5.375499 -2.714172 -0.261648 -1.454458 6.990647 -0.013769 -0.063580 -0.029898 -0.256498 -0.451076 6.174631 -12.395660 8.590037 -6.565546 0.000000 0.000000 0.000000 1.699722 0.042562 3.583402 9.813439 3.879104 -0.342296 12.179567 -25.936381 -57.777588 -3.517247 -32.749490 7.484911 0.000000 0.000000 0.000000 -2.770003 1.585348 2.356533 22.349709 1.161881 2.481033 59.364179 -11.648281 1.266134 -177.151119 67.720533 179.962780 0.000000 0.000000 0.000000 
-52.222973 80.531311 43.179371 -179.988366 -19.681508 179.979938 -6.400280 -4.207922 11.375730 -6.586757 5.602896 -23.812980 7.556269 3.197717 31.585827 5.783187 -11.061193 -16.660694 0.000000 0.000000 0.000000 -2.533631 -5.471983 10.561486 -11.337777 -12.066026 -16.935263 -2.355148 3.173668 29.295463 12.290938 5.337690 -0.049773 0.000000 0.000000 0.000000 -2.215318 -2.231921 -0.280939 0.990734 5.456389 -2.544516 -0.258501 -1.393227 6.940120 -0.016647 -0.020684 0.021562 -0.217780 -0.465638 6.094563 -12.478813 8.789507 -6.707128 0.000000 0.000000 0.000000 1.681582 0.084876 3.533308 9.958181 3.943563 -0.230047 12.332438 -26.196560 -57.476165 -3.399907 -32.688111 7.508861 0.000000 0.000000 0.000000 -2.838688 1.732735 2.235374 22.590282 0.853532 2.416155 59.364576 -11.808761 0.971534 -177.221675 67.612999 179.958191 0.000000 0.000000 0.000000 
-52.341805 80.520332 43.059753 -179.926335 -20.407388 179.954270 -6.383775 -4.323809 11.456413 -6.548966 5.659434 -23.830274 7.532502 3.039798 31.846044 5.772577 -11.308666 -16.624388 0.000000 0.000000 0.000000 -2.486601 -5.473847 10.648934 -11.341421 -12.370532 -16.719485 -2.276266 3.211668 29.438160 12.154797 5.127076 -0.092285 0.000000 0.000000 0.000000 -2.299790 -2.252059 -0.190723 1.107475 5.519371 -2.360005 -0.232046 -1.351372 6.955313 0.000819 0.014985 0.026245 -0.204253 -0.565227 6.057656 -12.289214 9.177225 -6.879123 0.000000 0.000000 0.000000 1.626376 0.032543 3.477742 9.973005 3.937674 -0.076922 12.656247 -26.238687 -57.309665 -3.407456 -32.469606 7.564721 0.000000 0.000000 0.000000 -2.904880 1.604996 2.252385 22.869498 0.690842 2.470907 59.319968 -11.739780 0.636159 -177.479488 67.321828 179.911691 0.000000 0.000000 0.000000 
-52.475857 80.510155 42.940041 179.984883 -20.979513 -179.977288 -6.493123 -4.391383 11.493728 -6.594070 5.704005 -23.929216 7.478587 2.866760 32.039130 5.716451 -11.556171 -16.550803 0.000000 0.000000 0.000000 -2.429814 -5.341519 10.668516 -11.479561 -12.756458 -16.585718 -2.222341 3.154380 29.692724 12.124402 5.038307 0.009621 0.000000 0.000000 0.000000 -2.407824 -2.177347 -0.102919 1.086008 5.578354 -2.210395 -0.244605 -1.354470 6.985397 -0.001452 -0.011753 0.020663 -0.142998 -0.472951 6.157800 -11.952785 9.305822 -6.911256 0.000000 0.000000 0.000000 1.664841 0.081889 3.505738 9.878589 4.077865 -0.104561 13.029859 -26.339214 -57.311216 -3.326929 -32.153778 7.424443 0.000000 0.000000 0.000000 -2.848094 1.579246 2.425808 23.189368 0.597378 2.337051 59.265709 -11.654948 0.572052 -177.683956 66.985270 -179.947194 0.000000 0.000000 0.000000 
